<svg xmlns="http://www.w3.org/2000/svg" width="359" height="61" viewBox="0 0 359 61">
  <g fill="#FFFFFF">
    <path d="M21.189,15.917 L31.873,15.917 L52.288,58.838 L41.086,58.838 L36.689,48.62 L15.88,48.62 L11.616,58.838 L0.935,58.838 L21.189,15.917 Z M26.138,24.443 L19.138,40.969 L33.401,40.969 L26.138,24.443 Z"/>
    <polygon points="55.642 15.917 70.426 15.917 82.638 48.851 94.85 15.917 109.568 15.917 109.568 58.838 99.702 58.838 100.518 25.406 88.24 58.839 77.558 58.839 64.891 25.056 65.902 58.839 55.642 58.839"/>
    <polygon points="338.966 2.479 335.794 2.479 335.794 .236 344.87 .236 344.87 2.479 341.646 2.479 341.646 12.047 338.965 12.047 338.965 2.479"/>
    <path d="M356.213 7.525C356.16 6.107 356.108 4.389 356.108 2.673L356.055 2.673C355.687 4.179 355.198 5.862 354.741 7.245L353.304 11.854 351.219 11.854 349.957 7.281C349.571 5.896 349.17 4.214 348.888 2.673L348.853 2.673C348.783 4.266 348.731 6.089 348.642 7.561L348.432 12.047 345.961 12.047 346.714.236 350.273.236 351.428 4.179C351.796 5.546 352.164 7.017 352.427 8.403L352.479 8.403C352.811 7.036 353.215 5.477 353.601 4.161L354.862.236 358.35.236 359 12.046 356.389 12.046 356.213 7.525zM132.012 15.318C139.387 15.318 144.675 15.911 150.341 17.335L150.341 23.99C150.268 23.99 141.43 23.15 134.383 23.15 127.02 23.15 124.178 24.574 124.178 38.027 124.178 47.984 126.127 52.78 134.424 52.78 141.971 52.78 150.341 52.291 150.341 52.291L150.341 58.946C145.626 60.167 139.545 60.716 132.012 60.612 118.711 60.513 114.116 52 114.116 37.909 114.116 23.698 117.707 15.318 132.012 15.318z"/>
    <polygon points="156.545 15.802 166.609 15.802 166.609 34.841 184.651 34.841 184.651 15.802 194.715 15.802 194.715 60.249 184.651 60.249 184.651 42.673 166.609 42.673 166.609 60.249 156.545 60.249"/>
    <path d="M251.37 15.802L274.39 15.802C282.602 15.802 288.712 19.05 288.712 29.66 288.712 40.665 283.257 41.971 280.333 42.747L290.295 60.249 278.972 60.249 270.435 44.272 262.162 44.272 261.43 60.249 251.37 60.249 251.37 15.802zM273.4 35.9C276.903 35.9 278.574 35.03 278.574 29.661 278.574 24.613 276.563 23.362 273.4 23.362L261.472 23.362 261.472 35.9 273.4 35.9zM216.05 15.802L227.498 15.802 244.586 60.249 233.872 60.249 230.135 50.401 212.901 50.401 209.105 60.249 198.294 60.249 216.05 15.802zM227.754 42.871L221.842 27.006 215.515 42.871 227.754 42.871z"/>
    <polygon stroke="#FFFFFF" stroke-width="3" points="296.645 34.943 316.341 34.943 316.341 17 322.814 17 322.814 34.943 342.731 34.943 342.731 40.807 322.814 40.807 322.814 58.75 316.341 58.75 316.341 40.807 296.645 40.807 296.645 34.943"/>
  </g>
</svg>
